<?xml version="1.0" encoding="utf-8"?>
<!-- Generator: Adobe Illustrator 26.0.3, SVG Export Plug-In . SVG Version: 6.00 Build 0)  -->
<svg version="1.0" id="katman_1" xmlns="http://www.w3.org/2000/svg" xmlns:xlink="http://www.w3.org/1999/xlink" x="0px" y="0px"
	 viewBox="0 0 600 450" style="enable-background:new 0 0 600 450;" xml:space="preserve">
<style type="text/css">
	.st0{fill-rule:evenodd;clip-rule:evenodd;fill:#4CBCC0;}
</style>
<g>
	<path class="st0" d="M201.4,205.2c-9.1,0-16.9,2.9-23.1,9c-5.9,5.6-9.3,12.7-10.1,21h64.2c0-8.4-2.6-15.2-7.9-20.7
		C219,208.1,211.3,205.2,201.4,205.2L201.4,205.2L201.4,205.2z M484.5,205.2c-9.3,0-16.9,2.9-23.1,9c-5.9,5.6-9.3,12.7-10.1,21h64.2
		c0-8.4-2.5-15.2-7.7-20.7C502,208.1,494.3,205.2,484.5,205.2L484.5,205.2L484.5,205.2z M396.8,205.2c-9.3,0-16.9,2.9-23.1,9
		c-5.9,5.6-9.3,12.7-10.1,21H428c0-8.4-2.6-15.2-7.9-20.7C414.4,208.1,406.7,205.2,396.8,205.2L396.8,205.2L396.8,205.2z
		 M355.2,207.3c-3.1-1.5-6.3-2.3-9.4-2.3c-7.3,0-13.6,3.4-19.2,10.1c-5.4,6.8-8.2,14.9-8.2,24.3v66.5h-20.6v-98.6h-20.3v98.7h-20.6
		v-98.7h-12.7c5.9,8.2,8.8,18.1,8.8,30.2c0,4.6-0.6,8.8-1.7,12.5h-83.7c0,13.6,3.7,24,11.1,31.4c6.7,6.3,15,9.6,25.4,9.6
		c11.8,0,21.5-3.4,29.6-10.2l8.7,14.9c-3.2,3.2-8,5.9-14.7,8.2c-8.2,3.1-17.5,4.5-27.5,4.5c-14.5,0-26.9-5-37.1-14.9
		c-0.2-0.2-0.3-0.3-0.5-0.5c0,0,0,0-0.2-0.2l0,0c0,0-0.2,0-0.2-0.2c-0.2-0.2-0.2-0.2-0.3-0.3c0,0-0.2,0-0.2-0.2
		c-0.2-0.2-0.3-0.3-0.5-0.5c0,0,0-0.2-0.2-0.2c-0.2-0.2-0.3-0.3-0.5-0.5c0,0,0,0-0.2-0.2c-0.2-0.2-0.3-0.3-0.3-0.5
		c-0.2,0-0.2-0.2-0.2-0.2c0-0.2-0.2-0.2-0.2-0.2l-0.2-0.2l-0.2-0.2c-0.2-0.2-0.2-0.2-0.3-0.3c-0.2-0.2-0.2-0.2-0.3-0.3l-0.2-0.2
		c-0.2-0.2-0.2-0.3-0.3-0.3c0-0.2-0.2-0.2-0.3-0.3s-0.2-0.2-0.3-0.3l-0.2-0.2c-0.2-0.2-0.3-0.3-0.5-0.6l0,0
		c-0.3-0.5-0.6-0.8-0.9-1.2l0,0c-0.6-0.8-1.2-1.7-1.7-2.5c-1.7,2.8-3.6,5.3-5.7,7.7c-9.9,11.1-23.4,16.7-40.2,16.7
		c-5.6,0-11-1.1-16.2-3.1s-9.4-4.5-12.1-7.4l-7.3,10.5h-9.7V142.4h20.6v56.2c2-2.6,5.6-5.1,11-7.3c5.4-2.3,10.7-3.4,15.9-3.4
		c15.8,0,28.8,5.4,38.7,16.4c2.3,2.6,4.5,5.6,6.3,8.5l0,0l0.2-0.2c0.2-0.2,0.2-0.3,0.2-0.3c0-0.2,0.2-0.2,0.2-0.3
		c0.2-0.2,0.2-0.3,0.3-0.5c0-0.2,0.2-0.2,0.2-0.3c0.2-0.2,0.2-0.3,0.3-0.5l0.2-0.2c0.2-0.2,0.2-0.3,0.3-0.5c0,0,0,0,0.2,0
		c0.2-0.2,0.2-0.3,0.5-0.5c0,0,0,0,0-0.2c0.2-0.2,0.3-0.3,0.3-0.5c0,0,0,0,0.2,0c0.2-0.2,0.3-0.3,0.3-0.5c0,0,0.2,0,0.2-0.2
		c0.2-0.2,0.3-0.3,0.3-0.5c0,0,0-0.2,0.2-0.2c0.2-0.2,0.3-0.3,0.3-0.5l0.2-0.2c0.3-0.3,0.6-0.8,0.9-1.1l0,0l0,0
		c0.2-0.2,0.3-0.3,0.5-0.5l0,0l0,0c0.2-0.2,0.3-0.3,0.5-0.5l0,0l0,0c0.2-0.2,0.3-0.3,0.5-0.5l0,0l0,0c0.2-0.2,0.3-0.3,0.5-0.5
		c0,0,0,0,0.2-0.2c0.2-0.2,0.3-0.3,0.5-0.5c10.4-10.4,22.7-15.5,37-15.5c16.6,0,29.6,4.6,39,13.9c0.2,0.2,0.3,0.3,0.6,0.5v-12.4
		h16.9c0-14.9,3.7-26.5,11-34.8c7.3-8.5,17-12.7,28.9-12.7c6,0,12.4,1.1,19.3,3.2l-5.7,15.2c-4.2-1.4-8.2-2.2-11.8-2.2
		c-6.3,0-11.4,2.3-15.6,7.1c-4,4.8-6.2,10.8-6.2,18.1c0,2,0.2,4,0.6,6h20.3h3.4h17.3v18.6c7.4-13.8,18.7-20.7,33.4-20.7
		c3.7,0,9,0.6,15.9,1.9l-3.9,9c9.3-7.3,20-11,31.9-11c16.6,0,29.6,4.6,39,13.9c2.3,2.3,4.5,5,6.2,7.7c1.7-2.2,3.4-4.3,5.4-6.2
		c10.4-10.4,22.7-15.5,37-15.5c16.6,0,29.6,4.6,39,13.9c9.1,9,13.6,20.9,13.6,35.6c0,4.6-0.6,8.8-1.7,12.5h-83.7
		c0,13.6,3.7,24,11.1,31.4c6.7,6.3,15,9.6,25.4,9.6c11.8,0,21.7-3.4,29.6-10.2l8.7,14.9c-3.1,3.2-8,5.9-14.7,8.2
		c-8.2,3.1-17.3,4.5-27.5,4.5c-14.5,0-26.9-5-37.1-14.9c-11.3-10.8-16.9-25.2-17-43.3h-65.9c0,13.6,3.7,24,11.1,31.4
		c6.5,6.3,15,9.6,25.4,9.6c11.8,0,21.5-3.4,29.4-10.2l8.7,14.9c-3.2,3.2-8,5.9-14.7,8.2c-8.2,3.1-17.3,4.5-27.5,4.5
		c-14.5,0-26.9-5-37.1-14.9c-11.3-11-17-25.5-17-43.9C341.4,232.4,346,218.3,355.2,207.3L355.2,207.3L355.2,207.3z M83.9,214.3v67
		c0,1.2,2.6,3.1,7.7,5.7c5.3,2.6,9,3.9,11.8,3.9c13.9,0,24-3.4,30.2-10.1c6-6.7,9.1-17.9,9.1-33.7c0-13.2-3.6-23.5-10.7-30.8
		c-7.1-7.4-16.6-11-28.6-11c-2.6,0-6,1.1-10.5,3.2C88.3,210.6,85.3,212.6,83.9,214.3L83.9,214.3L83.9,214.3z M157.1,210.9l0.2-0.2
		L157.1,210.9z"/>
</g>
</svg>
